<svg
      width="276"
      height="18"
      viewBox="0 0 276 18"
      fill="none"
      xmlns="http://www.w3.org/2000/svg"
    >
      <path
        d="M5.97675 12.9999C5.89749 13.5561 5.62022 14.065 5.19587 14.4332C4.77151 14.8014 4.22856 15.0041 3.66675 15.0041C3.10494 15.0041 2.56199 14.8014 2.13763 14.4332C1.71327 14.065 1.436 13.5561 1.35675 12.9999H0.666748V4.99992C0.666748 4.82311 0.736986 4.65354 0.86201 4.52851C0.987034 4.40349 1.1566 4.33325 1.33341 4.33325H10.6667C10.8436 4.33325 11.0131 4.40349 11.1382 4.52851C11.2632 4.65354 11.3334 4.82311 11.3334 4.99992V6.33325H13.3334L15.3334 9.03725V12.9999H13.9767C13.8975 13.5561 13.6202 14.065 13.1959 14.4332C12.7715 14.8014 12.2286 15.0041 11.6667 15.0041C11.1049 15.0041 10.562 14.8014 10.1376 14.4332C9.71327 14.065 9.436 13.5561 9.35675 12.9999H5.97675ZM10.0001 5.66659H2.00008V11.0333C2.26312 10.7647 2.58715 10.5637 2.94458 10.4473C3.30202 10.331 3.68228 10.3027 4.053 10.3648C4.42372 10.427 4.77393 10.5779 5.07382 10.8045C5.37371 11.0312 5.6144 11.3269 5.77541 11.6666H9.55808C9.67008 11.4313 9.82008 11.2173 10.0001 11.0333V5.66659ZM11.3334 9.66659H14.0001V9.47659L12.6614 7.66659H11.3334V9.66659ZM11.6667 13.6666C11.9321 13.6666 12.1865 13.5612 12.3741 13.3736C12.5617 13.186 12.6671 12.9316 12.6671 12.6663C12.6671 12.4009 12.5617 12.1465 12.3741 11.9589C12.1865 11.7713 11.9321 11.6659 11.6667 11.6659C11.4014 11.6659 11.147 11.7713 10.9594 11.9589C10.7718 12.1465 10.6664 12.4009 10.6664 12.6663C10.6664 12.9316 10.7718 13.186 10.9594 13.3736C11.147 13.5612 11.4014 13.6666 11.6667 13.6666ZM4.66675 12.6666C4.66675 12.5353 4.64088 12.4052 4.59063 12.2839C4.54037 12.1626 4.46671 12.0523 4.37385 11.9595C4.281 11.8666 4.17076 11.793 4.04943 11.7427C3.92811 11.6925 3.79807 11.6666 3.66675 11.6666C3.53543 11.6666 3.40539 11.6925 3.28406 11.7427C3.16274 11.793 3.0525 11.8666 2.95964 11.9595C2.86678 12.0523 2.79312 12.1626 2.74287 12.2839C2.69261 12.4052 2.66675 12.5353 2.66675 12.6666C2.66675 12.9318 2.7721 13.1862 2.95964 13.3737C3.14718 13.5612 3.40153 13.6666 3.66675 13.6666C3.93196 13.6666 4.18632 13.5612 4.37385 13.3737C4.56139 13.1862 4.66675 12.9318 4.66675 12.6666Z"
        fill="#485760"
      />
      <path
        d="M30.9727 14H25.3193V4.00586H30.9727V5.38672H26.9531V8.10742H30.7197V9.47461H26.9531V12.6123H30.9727V14ZM39.6201 14H38.0068V9.35156C38.0068 8.76823 37.8883 8.33301 37.6514 8.0459C37.4189 7.75879 37.0475 7.61523 36.5371 7.61523C35.8581 7.61523 35.3613 7.81576 35.0469 8.2168C34.7324 8.61784 34.5752 9.29004 34.5752 10.2334V14H32.9688V6.43945H34.2266L34.4521 7.43066H34.5342C34.762 7.07064 35.0856 6.79264 35.5049 6.59668C35.9242 6.40072 36.389 6.30273 36.8994 6.30273C38.7132 6.30273 39.6201 7.22559 39.6201 9.07129V14ZM43.5781 14L40.707 6.43945H42.4023L43.9404 10.835C44.2048 11.5732 44.3643 12.1702 44.4189 12.626H44.4736C44.5146 12.2979 44.6742 11.7008 44.9521 10.835L46.4902 6.43945H48.1992L45.3145 14H43.5781ZM50.9541 14H49.3477V6.43945H50.9541V14ZM49.2656 5.5166V5.3457C49.5254 5.02669 49.792 4.67122 50.0654 4.2793C50.3434 3.88737 50.5622 3.55241 50.7217 3.27441H52.5879V3.41797C52.3509 3.69596 51.9954 4.05599 51.5215 4.49805C51.0521 4.93555 50.6556 5.27507 50.332 5.5166H49.2656ZM59.9639 10.2061C59.9639 11.4411 59.6471 12.4049 59.0137 13.0977C58.3802 13.7904 57.4984 14.1367 56.3682 14.1367C55.6618 14.1367 55.0374 13.9772 54.4951 13.6582C53.9528 13.3392 53.5358 12.8812 53.2441 12.2842C52.9525 11.6872 52.8066 10.9945 52.8066 10.2061C52.8066 8.98014 53.1211 8.02311 53.75 7.33496C54.3789 6.64681 55.2653 6.30273 56.4092 6.30273C57.5029 6.30273 58.3688 6.65592 59.0068 7.3623C59.6449 8.06413 59.9639 9.01204 59.9639 10.2061ZM54.4609 10.2061C54.4609 11.9515 55.1058 12.8242 56.3955 12.8242C57.6715 12.8242 58.3096 11.9515 58.3096 10.2061C58.3096 8.47884 57.667 7.61523 56.3818 7.61523C55.7074 7.61523 55.2174 7.83854 54.9121 8.28516C54.6113 8.73177 54.4609 9.37207 54.4609 10.2061ZM71.8379 6.43945V7.32129L70.5459 7.56055C70.6644 7.72005 70.7624 7.91602 70.8398 8.14844C70.9173 8.38086 70.9561 8.62695 70.9561 8.88672C70.9561 9.66602 70.6872 10.279 70.1494 10.7256C69.6117 11.1722 68.8711 11.3955 67.9277 11.3955C67.6862 11.3955 67.4674 11.3773 67.2715 11.3408C66.9251 11.555 66.752 11.8057 66.752 12.0928C66.752 12.266 66.8317 12.3958 66.9912 12.4824C67.1553 12.569 67.4538 12.6123 67.8867 12.6123H69.2061C70.04 12.6123 70.6735 12.79 71.1064 13.1455C71.5394 13.501 71.7559 14.0137 71.7559 14.6836C71.7559 15.5404 71.4027 16.2012 70.6963 16.666C69.9899 17.1309 68.9691 17.3633 67.6338 17.3633C66.6038 17.3633 65.8177 17.181 65.2754 16.8164C64.7331 16.4518 64.4619 15.9323 64.4619 15.2578C64.4619 14.793 64.6077 14.401 64.8994 14.082C65.1956 13.7676 65.6081 13.5488 66.1367 13.4258C65.9225 13.3346 65.7448 13.1888 65.6035 12.9883C65.4668 12.7832 65.3984 12.569 65.3984 12.3457C65.3984 12.0632 65.4782 11.8239 65.6377 11.6279C65.7972 11.432 66.0342 11.2383 66.3486 11.0469C65.9567 10.8783 65.6377 10.6048 65.3916 10.2266C65.1501 9.84375 65.0293 9.39714 65.0293 8.88672C65.0293 8.06641 65.2868 7.43066 65.8018 6.97949C66.3213 6.52832 67.0596 6.30273 68.0166 6.30273C68.2308 6.30273 68.4541 6.31868 68.6865 6.35059C68.9235 6.37793 69.1012 6.40755 69.2197 6.43945H71.8379ZM65.8975 15.1758C65.8975 15.5221 66.0524 15.7887 66.3623 15.9756C66.6768 16.1624 67.1165 16.2559 67.6816 16.2559C68.5566 16.2559 69.2083 16.1305 69.6367 15.8799C70.0651 15.6292 70.2793 15.2965 70.2793 14.8818C70.2793 14.5537 70.1608 14.319 69.9238 14.1777C69.6914 14.041 69.2562 13.9727 68.6182 13.9727H67.4014C66.9411 13.9727 66.5742 14.0798 66.3008 14.2939C66.0319 14.5127 65.8975 14.8066 65.8975 15.1758ZM66.5879 8.88672C66.5879 9.36068 66.7087 9.72526 66.9502 9.98047C67.1963 10.2357 67.5472 10.3633 68.0029 10.3633C68.9326 10.3633 69.3975 9.86654 69.3975 8.87305C69.3975 8.38086 69.2812 8.0026 69.0488 7.73828C68.821 7.4694 68.4723 7.33496 68.0029 7.33496C67.5381 7.33496 67.1849 7.46712 66.9434 7.73145C66.7064 7.99577 66.5879 8.38086 66.5879 8.88672ZM77.0811 6.30273C77.4046 6.30273 77.6712 6.32552 77.8809 6.37109L77.7236 7.86816C77.4958 7.81348 77.2588 7.78613 77.0127 7.78613C76.3701 7.78613 75.8483 7.99577 75.4473 8.41504C75.0508 8.83431 74.8525 9.37891 74.8525 10.0488V14H73.2461V6.43945H74.5039L74.7158 7.77246H74.7979C75.0485 7.32129 75.3743 6.96354 75.7754 6.69922C76.181 6.4349 76.6162 6.30273 77.0811 6.30273ZM84.0195 14L83.6982 12.9473H83.6436C83.279 13.4076 82.9121 13.722 82.543 13.8906C82.1738 14.0547 81.6999 14.1367 81.1211 14.1367C80.3783 14.1367 79.7972 13.9362 79.3779 13.5352C78.9632 13.1341 78.7559 12.5667 78.7559 11.833C78.7559 11.0537 79.0452 10.4658 79.624 10.0693C80.2028 9.67285 81.0846 9.45638 82.2695 9.41992L83.5752 9.37891V8.97559C83.5752 8.49251 83.4613 8.13249 83.2334 7.89551C83.0101 7.65397 82.6615 7.5332 82.1875 7.5332C81.8001 7.5332 81.4287 7.59017 81.0732 7.7041C80.7178 7.81803 80.376 7.95247 80.0479 8.10742L79.5283 6.95898C79.9385 6.74479 80.3874 6.58301 80.875 6.47363C81.3626 6.3597 81.8229 6.30273 82.2559 6.30273C83.2174 6.30273 83.9421 6.51237 84.4297 6.93164C84.9219 7.35091 85.168 8.00944 85.168 8.90723V14H84.0195ZM81.627 12.9062C82.2103 12.9062 82.6774 12.7445 83.0283 12.4209C83.3838 12.0928 83.5615 11.6348 83.5615 11.0469V10.3906L82.5908 10.4316C81.8343 10.459 81.2829 10.5866 80.9365 10.8145C80.5947 11.0378 80.4238 11.3818 80.4238 11.8467C80.4238 12.1839 80.5241 12.446 80.7246 12.6328C80.9251 12.8151 81.2259 12.9062 81.627 12.9062ZM90.2266 12.8379C90.6185 12.8379 91.0104 12.7764 91.4023 12.6533V13.8633C91.2246 13.9408 90.9945 14.0046 90.7119 14.0547C90.4339 14.1094 90.1445 14.1367 89.8438 14.1367C88.3216 14.1367 87.5605 13.3346 87.5605 11.7305V7.65625H86.5283V6.94531L87.6357 6.35742L88.1826 4.75781H89.1738V6.43945H91.3271V7.65625H89.1738V11.7031C89.1738 12.0905 89.2695 12.3776 89.4609 12.5645C89.6569 12.7467 89.9121 12.8379 90.2266 12.8379ZM94.5264 14H92.9199V6.43945H94.5264V14ZM92.8242 4.43652C92.8242 4.14941 92.9017 3.92839 93.0566 3.77344C93.2161 3.61849 93.4417 3.54102 93.7334 3.54102C94.016 3.54102 94.2347 3.61849 94.3896 3.77344C94.5492 3.92839 94.6289 4.14941 94.6289 4.43652C94.6289 4.70996 94.5492 4.92643 94.3896 5.08594C94.2347 5.24089 94.016 5.31836 93.7334 5.31836C93.4417 5.31836 93.2161 5.24089 93.0566 5.08594C92.9017 4.92643 92.8242 4.70996 92.8242 4.43652ZM101.909 11.8467C101.909 12.585 101.64 13.1523 101.103 13.5488C100.565 13.9408 99.7946 14.1367 98.792 14.1367C97.7848 14.1367 96.9759 13.984 96.3652 13.6787V12.291C97.2539 12.7012 98.0811 12.9062 98.8467 12.9062C99.8356 12.9062 100.33 12.6077 100.33 12.0107C100.33 11.8193 100.275 11.6598 100.166 11.5322C100.057 11.4046 99.8766 11.2725 99.626 11.1357C99.3753 10.999 99.0267 10.8441 98.5801 10.6709C97.7096 10.3337 97.1195 9.99642 96.8096 9.65918C96.5042 9.32194 96.3516 8.88444 96.3516 8.34668C96.3516 7.69954 96.6113 7.19824 97.1309 6.84277C97.6549 6.48275 98.3659 6.30273 99.2637 6.30273C100.152 6.30273 100.993 6.48275 101.786 6.84277L101.267 8.05273C100.451 7.71549 99.765 7.54688 99.209 7.54688C98.3613 7.54688 97.9375 7.78841 97.9375 8.27148C97.9375 8.50846 98.0469 8.70898 98.2656 8.87305C98.4889 9.03711 98.972 9.2627 99.7148 9.5498C100.339 9.79134 100.793 10.0124 101.075 10.2129C101.358 10.4134 101.567 10.6458 101.704 10.9102C101.841 11.1699 101.909 11.4821 101.909 11.8467Z"
        fill="#485760"
      />
      <rect x="111" y="1" width="32" height="16" rx="8" fill="#6E8391" />
      <circle cx="119" cy="8.99992" r="6.66667" fill="white" />
</svg>