<svg width="16" height="16" viewBox="0 0 16 16" fill="none" xmlns="http://www.w3.org/2000/svg">
<path d="M5.9765 12.0019C5.89725 12.5581 5.61998 13.067 5.19562 13.4352C4.77127 13.8033 4.22832 14.006 3.6665 14.006C3.10469 14.006 2.56174 13.8033 2.13738 13.4352C1.71303 13.067 1.43576 12.5581 1.3565 12.0019H0.666504V4.00187C0.666504 3.82506 0.736742 3.65549 0.861766 3.53047C0.98679 3.40544 1.15636 3.33521 1.33317 3.33521H10.6665C10.8433 3.33521 11.0129 3.40544 11.1379 3.53047C11.2629 3.65549 11.3332 3.82506 11.3332 4.00187V5.33521H13.3332L15.3332 8.03921V12.0019H13.9765C13.8973 12.5581 13.62 13.067 13.1956 13.4352C12.7713 13.8033 12.2283 14.006 11.6665 14.006C11.1047 14.006 10.5617 13.8033 10.1374 13.4352C9.71303 13.067 9.43576 12.5581 9.3565 12.0019H5.9765ZM9.99984 4.66854H1.99984V10.0352C2.26288 9.76667 2.5869 9.56566 2.94434 9.44928C3.30177 9.33291 3.68203 9.30461 4.05276 9.3668C4.42348 9.42899 4.77369 9.57983 5.07358 9.80647C5.37347 10.0331 5.61416 10.3289 5.77517 10.6685H9.55784C9.66984 10.4332 9.81984 10.2192 9.99984 10.0352V4.66854ZM11.3332 8.66854H13.9998V8.47854L12.6612 6.66854H11.3332V8.66854ZM11.6665 12.6685C11.9318 12.6685 12.1862 12.5631 12.3738 12.3755C12.5614 12.1879 12.6668 11.9335 12.6668 11.6682C12.6668 11.4029 12.5614 11.1485 12.3738 10.9609C12.1862 10.7733 11.9318 10.6679 11.6665 10.6679C11.4012 10.6679 11.1468 10.7733 10.9592 10.9609C10.7716 11.1485 10.6662 11.4029 10.6662 11.6682C10.6662 11.9335 10.7716 12.1879 10.9592 12.3755C11.1468 12.5631 11.4012 12.6685 11.6665 12.6685ZM4.6665 11.6685C4.6665 11.5372 4.64064 11.4072 4.59038 11.2859C4.54013 11.1645 4.46647 11.0543 4.37361 10.9614C4.28075 10.8686 4.17051 10.7949 4.04919 10.7447C3.92786 10.6944 3.79783 10.6685 3.6665 10.6685C3.53518 10.6685 3.40515 10.6944 3.28382 10.7447C3.16249 10.7949 3.05226 10.8686 2.9594 10.9614C2.86654 11.0543 2.79288 11.1645 2.74262 11.2859C2.69237 11.4072 2.6665 11.5372 2.6665 11.6685C2.6665 11.9338 2.77186 12.1881 2.9594 12.3756C3.14693 12.5632 3.40129 12.6685 3.6665 12.6685C3.93172 12.6685 4.18607 12.5632 4.37361 12.3756C4.56115 12.1881 4.6665 11.9338 4.6665 11.6685Z" fill="#485760"/>
</svg>
