<svg width="24" height="24" viewBox="0 0 24 24" fill="none" xmlns="http://www.w3.org/2000/svg">
<path fill-rule="evenodd" clip-rule="evenodd" d="M9 4.5H5C4.72386 4.5 4.5 4.72386 4.5 5V9C4.5 9.27614 4.72386 9.5 5 9.5H9C9.27614 9.5 9.5 9.27614 9.5 9V5C9.5 4.72386 9.27614 4.5 9 4.5ZM5 3C3.89543 3 3 3.89543 3 5V9C3 10.1046 3.89543 11 5 11H9C10.1046 11 11 10.1046 11 9V5C11 3.89543 10.1046 3 9 3H5Z" fill="#363F45"/>
<path fill-rule="evenodd" clip-rule="evenodd" d="M19 4.5H15C14.7239 4.5 14.5 4.72386 14.5 5V9C14.5 9.27614 14.7239 9.5 15 9.5H19C19.2761 9.5 19.5 9.27614 19.5 9V5C19.5 4.72386 19.2761 4.5 19 4.5ZM15 3C13.8954 3 13 3.89543 13 5V9C13 10.1046 13.8954 11 15 11H19C20.1046 11 21 10.1046 21 9V5C21 3.89543 20.1046 3 19 3H15Z" fill="#363F45"/>
<path fill-rule="evenodd" clip-rule="evenodd" d="M9 14.5H5C4.72386 14.5 4.5 14.7239 4.5 15V19C4.5 19.2761 4.72386 19.5 5 19.5H9C9.27614 19.5 9.5 19.2761 9.5 19V15C9.5 14.7239 9.27614 14.5 9 14.5ZM5 13C3.89543 13 3 13.8954 3 15V19C3 20.1046 3.89543 21 5 21H9C10.1046 21 11 20.1046 11 19V15C11 13.8954 10.1046 13 9 13H5Z" fill="#363F45"/>
<path fill-rule="evenodd" clip-rule="evenodd" d="M19 14.5H15C14.7239 14.5 14.5 14.7239 14.5 15V19C14.5 19.2761 14.7239 19.5 15 19.5H19C19.2761 19.5 19.5 19.2761 19.5 19V15C19.5 14.7239 19.2761 14.5 19 14.5ZM15 13C13.8954 13 13 13.8954 13 15V19C13 20.1046 13.8954 21 15 21H19C20.1046 21 21 20.1046 21 19V15C21 13.8954 20.1046 13 19 13H15Z" fill="#363F45"/>
</svg>
