<svg width="24" height="24" viewBox="0 0 24 24" fill="none" xmlns="http://www.w3.org/2000/svg">
<path fill-rule="evenodd" clip-rule="evenodd" d="M4.4 4.4V6.8H19.6V4.4H4.4ZM4 3C3.44772 3 3 3.44772 3 4V7.2C3 7.75228 3.44772 8.2 4 8.2H20C20.5523 8.2 21 7.75228 21 7.2V4C21 3.44772 20.5523 3 20 3H4ZM4.4 10.9V13.3H19.6V10.9H4.4ZM4 9.5C3.44772 9.5 3 9.94772 3 10.5V13.7C3 14.2523 3.44772 14.7 4 14.7H20C20.5523 14.7 21 14.2523 21 13.7V10.5C21 9.94772 20.5523 9.5 20 9.5H4ZM4.4 19.8V17.4H19.6V19.8H4.4ZM3 17C3 16.4477 3.44772 16 4 16H20C20.5523 16 21 16.4477 21 17V20.2C21 20.7523 20.5523 21.2 20 21.2H4C3.44772 21.2 3 20.7523 3 20.2V17Z" fill="#AF1212"/>
</svg>
