<svg width="24" height="24" fill="none" xmlns="http://www.w3.org/2000/svg"><path opacity=".01" d="M0 24L24 24L24 0L0 0L0 24Z" fill="#CBCBCB"/><path d="M5.91304 11.87C5.88602 11.9546 5.88602 12.0455 5.91304 12.13C5.91972 12.1729 5.93044 12.2151 5.94504 12.256C5.96642 12.2979 5.99152 12.3377 6.02004 12.375C6.03634 12.4058 6.05507 12.4352 6.07604 12.463C6.08404 12.471 6.09404 12.475 6.10304 12.483C6.11204 12.491 6.11504 12.5 6.12404 12.509L16.687 21.678C16.8307 21.8013 17.016 21.8652 17.2052 21.8567C17.3943 21.8481 17.5731 21.7678 17.705 21.632C17.7692 21.5666 17.8192 21.4886 17.8518 21.4029C17.8845 21.3173 17.899 21.2258 17.8946 21.1342C17.8902 21.0427 17.8669 20.953 17.8262 20.8709C17.7855 20.7888 17.7282 20.716 17.658 20.657L7.68004 11.996L17.658 3.33802C17.7276 3.2791 17.7843 3.2065 17.8246 3.12473C17.865 3.04297 17.8881 2.95379 17.8925 2.86273C17.8969 2.77167 17.8825 2.68067 17.8503 2.5954C17.818 2.51012 17.7686 2.43238 17.705 2.36702C17.6362 2.29544 17.5536 2.23858 17.4621 2.19991C17.3707 2.16123 17.2723 2.14153 17.173 2.14202C16.995 2.14098 16.8227 2.20459 16.688 2.32102L6.12404 11.491C6.11404 11.499 6.11204 11.509 6.10204 11.519C6.09204 11.529 6.08404 11.529 6.07604 11.537C6.05507 11.5648 6.03634 11.5942 6.02004 11.625C5.99152 11.6624 5.96642 11.7022 5.94504 11.744C5.93044 11.7849 5.91972 11.8271 5.91304 11.87" fill="#1A1A1A"/></svg>