<svg xmlns="http://www.w3.org/2000/svg" width="24" height="24"><path fill="#cbcbcb" opacity=".001" d="M0 0H24V24H0z"/><path d="M11.98,9.987a.427.427,0,0,0,0-.26.69.69,0,0,0-.032-.126.783.783,0,0,0-.075-.119.655.655,0,0,0-.056-.088c-.008-.008-.018-.012-.027-.02s-.012-.017-.021-.026L1.206.179A.744.744,0,0,0,.188.225.665.665,0,0,0,.235,1.2l9.978,8.661L.235,18.519a.665.665,0,0,0-.047.971.733.733,0,0,0,.532.225.735.735,0,0,0,.485-.179l10.564-9.17c.01-.008.012-.018.022-.028s.018-.01.026-.018a.655.655,0,0,0,.056-.088.783.783,0,0,0,.075-.119.69.69,0,0,0,.032-.126" transform="translate(6.107 2.143)" fill="#1a1a1a"/></svg>